<?xml version="1.0" standalone="no"?>
<!DOCTYPE svg PUBLIC "-//W3C//DTD SVG 20010904//EN"
 "http://www.w3.org/TR/2001/REC-SVG-20010904/DTD/svg10.dtd">
<svg version="1.0" xmlns="http://www.w3.org/2000/svg"
 width="512.000000pt" height="512.000000pt" viewBox="0 0 512.000000 512.000000"
 preserveAspectRatio="xMidYMid meet">
<metadata>
Created by potrace 1.11, written by Peter Selinger 2001-2013
</metadata>
<g transform="translate(0.000000,512.000000) scale(0.100000,-0.100000)"
fill="#000000" stroke="none">
<path d="M535 5084 c-195 -42 -368 -178 -455 -359 -75 -154 -70 -12 -70 -2164
0 -2131 -3 -2016 64 -2156 85 -178 230 -302 422 -362 56 -17 147 -18 2054 -18
1907 0 1998 1 2054 18 227 70 393 236 463 463 17 56 18 147 18 2054 0 1907 -1
1998 -18 2054 -76 245 -272 425 -511 471 -117 22 -3915 21 -4021 -1z m2617
-1023 c244 -64 456 -207 607 -411 213 -287 311 -698 267 -1119 -39 -362 -145
-633 -337 -862 -22 -25 -39 -48 -39 -51 0 -9 190 -99 263 -125 89 -31 218 -60
301 -69 36 -4 66 -11 66 -16 0 -13 -137 -226 -179 -277 -20 -25 -56 -57 -80
-73 -92 -58 -178 -35 -511 135 -107 55 -228 115 -269 132 -71 32 -74 32 -125
19 -88 -24 -236 -34 -354 -24 -515 45 -903 438 -1014 1025 -30 160 -32 509 -5
650 60 305 169 533 347 728 174 189 420 323 660 358 94 13 316 3 402 -20z
m-1910 -1 c106 -39 180 -146 186 -267 9 -158 -73 -275 -222 -318 -70 -21 -129
-14 -203 21 -215 103 -215 446 0 554 74 37 158 41 239 10z m128 -1339 c0 -571
13 -1034 34 -1243 l12 -118 -258 0 -258 0 0 743 c-1 676 -6 895 -26 1105 l-7
72 252 0 251 0 0 -559z"/>
<path d="M2757 3625 c-113 -23 -211 -77 -297 -164 -86 -87 -130 -157 -176
-279 -47 -126 -65 -227 -71 -397 -10 -264 28 -469 119 -655 91 -184 246 -314
416 -349 74 -15 217 -13 282 4 250 66 421 277 491 607 30 136 32 422 5 568
-69 378 -251 607 -528 665 -83 18 -150 18 -241 0z"/>
</g>
</svg>
