<svg width="12.999999999999998" height="12.999999999999998" xmlns="http://www.w3.org/2000/svg">

 <g>
  <title>background</title>
  <rect fill="none" id="canvas_background" height="602" width="802" y="-1" x="-1"/>
 </g>
 <g>
  <title>Layer 1</title>
  <path id="svg_1" d="m12.4801,2.08058c0.2929,-0.29289 0.2929,-0.76777 0,-1.06066c-0.2929,-0.29289 -0.7678,-0.29289 -1.0607,0l-4.5962,4.59618l-4.59615,-4.59618c-0.2929,-0.29289 -0.76777,-0.29289 -1.06066,0c-0.29289,0.29289 -0.2929,0.76777 0,1.06066l4.59621,4.59622l-4.59621,4.5962c-0.29289,0.2929 -0.2929,0.7677 0,1.0606c0.29289,0.2929 0.76777,0.2929 1.06066,0l4.59615,-4.5962l4.5962,4.5962c0.2929,0.2929 0.7678,0.2929 1.0607,0c0.2929,-0.2929 0.2929,-0.7677 0,-1.0606l-4.5962,-4.5962l4.5962,-4.59622z" fill-rule="evenodd" fill="#ffffff"/>
 </g>
</svg>